<svg width="865" height="456" viewBox="0 0 865 456" fill="none" xmlns="http://www.w3.org/2000/svg">
<path d="M149.131 426.093H150.663L154.803 435.568H153.056L152.101 433.297H147.652L146.685 435.568H144.991L149.131 426.093ZM151.497 431.832L149.871 428.069L148.258 431.832H151.497Z" fill="white"/>
<path d="M238.819 426.159H243.04C244.114 426.159 244.962 426.456 245.5 426.993C245.917 427.41 246.132 427.92 246.132 428.552V428.578C246.132 429.708 245.486 430.312 244.787 430.675C245.889 431.052 246.655 431.682 246.655 432.96V432.986C246.655 434.665 245.271 435.566 243.174 435.566H238.819V426.159ZM244.478 428.821C244.478 428.082 243.887 427.625 242.824 427.625H240.445V430.124H242.703C243.766 430.124 244.478 429.708 244.478 428.847V428.821ZM243.065 431.522H240.445V434.103H243.186C244.316 434.103 245.001 433.659 245.001 432.813V432.786C245.001 431.992 244.37 431.522 243.065 431.522Z" fill="white"/>
<path d="M330.859 430.89V430.865C330.859 428.19 332.862 425.999 335.712 425.999C337.446 425.999 338.495 426.604 339.395 427.465L338.333 428.687C337.58 427.989 336.774 427.519 335.698 427.519C333.911 427.519 332.593 428.997 332.593 430.838V430.865C332.593 432.706 333.896 434.198 335.698 434.198C336.854 434.198 337.594 433.741 338.4 432.988L339.462 434.064C338.481 435.085 337.405 435.73 335.645 435.73C332.902 435.729 330.859 433.592 330.859 430.89Z" fill="white"/>
<path d="M422.423 426.159H425.931C428.888 426.159 430.931 428.19 430.931 430.836V430.863C430.931 433.51 428.888 435.566 425.931 435.566H422.423V426.159ZM424.076 427.665V434.063H425.931C427.907 434.063 429.198 432.731 429.198 430.89V430.864C429.198 429.022 427.908 427.666 425.931 427.666H424.076V427.665Z" fill="white"/>
<path d="M515.74 426.159H522.717V427.637H517.394V430.083H522.112V431.561H517.394V434.088H522.784V435.566H515.742V426.159H515.74Z" fill="white"/>
<path d="M606.157 426.159H613.159V427.665H607.81V430.232H612.554V431.737H607.81V435.567H606.157V426.159Z" fill="white"/>
<path d="M695.202 430.89V430.865C695.202 428.23 697.218 425.999 700.054 425.999C701.695 425.999 702.702 426.456 703.67 427.276L702.621 428.526C701.896 427.907 701.184 427.519 699.987 427.519C698.253 427.519 696.935 429.037 696.935 430.838V430.865C696.935 432.8 698.212 434.224 700.133 434.224C701.021 434.224 701.827 433.942 702.405 433.511V431.751H699.999V430.313H704.004V434.264C703.078 435.058 701.746 435.73 700.08 435.73C697.137 435.729 695.202 433.632 695.202 430.89Z" fill="white"/>
<path d="M787.462 426.159H789.115V430.07H793.605V426.159H795.259V435.567H793.605V431.603H789.115V435.567H787.462V426.159Z" fill="white"/>
<path d="M792.181 30.2318H150.64V415.925H792.181V30.2318Z" fill="#F5F5F5"/>
<path opacity="0.1" d="M333.692 30.2733H242.011V416.324H333.692V30.2733Z" fill="#6E7C7C"/>
<path opacity="0.1" d="M700.418 30.2733H608.737V416.324H700.418V30.2733Z" fill="#6E7C7C"/>
<path d="M701.19 30.4033H698.949V416.35H701.19V30.4033Z" fill="white"/>
<path d="M609.615 30.4033H607.374V416.35H609.615V30.4033Z" fill="white"/>
<path d="M518.04 30.4033H515.799V416.35H518.04V30.4033Z" fill="white"/>
<path d="M426.465 30.4033H424.224V416.35H426.465V30.4033Z" fill="white"/>
<path d="M334.89 30.4033H332.649V416.35H334.89V30.4033Z" fill="white"/>
<path d="M243.315 30.4033H241.074V416.35H243.315V30.4033Z" fill="white"/>
<path d="M110.117 362.772L108.424 363.243L108.074 361.899L110.615 361.092H111.758V370.567H110.119L110.117 362.772Z" fill="white"/>
<path d="M114.489 365.889V365.864C114.489 363.177 116.129 360.998 118.603 360.998C121.063 360.998 122.689 363.149 122.689 365.836V365.863C122.689 368.55 121.049 370.728 118.576 370.728C116.103 370.729 114.489 368.579 114.489 365.889ZM120.982 365.889V365.864C120.982 364.009 120.027 362.49 118.576 362.49C117.124 362.49 116.196 363.968 116.196 365.836V365.863C116.196 367.717 117.137 369.235 118.601 369.235C120.068 369.235 120.982 367.732 120.982 365.889Z" fill="white"/>
<path d="M124.899 365.889V365.864C124.899 363.177 126.538 360.998 129.012 360.998C131.472 360.998 133.098 363.149 133.098 365.836V365.863C133.098 368.55 131.458 370.728 128.985 370.728C126.513 370.729 124.899 368.579 124.899 365.889ZM131.391 365.889V365.864C131.391 364.009 130.436 362.49 128.985 362.49C127.534 362.49 126.606 363.968 126.606 365.836V365.863C126.606 367.717 127.546 369.235 129.011 369.235C130.478 369.235 131.391 367.732 131.391 365.889Z" fill="white"/>
<path d="M135.308 365.889V365.864C135.308 363.177 136.948 360.998 139.421 360.998C141.881 360.998 143.507 363.149 143.507 365.836V365.863C143.507 368.55 141.868 370.728 139.394 370.728C136.921 370.729 135.308 368.579 135.308 365.889ZM141.801 365.889V365.864C141.801 364.009 140.846 362.49 139.394 362.49C137.943 362.49 137.015 363.968 137.015 365.836V365.863C137.015 367.717 137.956 369.235 139.421 369.235C140.886 369.235 141.801 367.732 141.801 365.889Z" fill="white"/>
<path d="M106.926 321.095L110.165 318.339C111.455 317.238 111.925 316.646 111.925 315.799C111.925 314.872 111.266 314.333 110.407 314.333C109.547 314.333 108.955 314.804 108.243 315.745L107.059 314.818C107.96 313.568 108.847 312.856 110.527 312.856C112.368 312.856 113.632 313.985 113.632 315.664V315.691C113.632 317.169 112.853 317.976 111.186 319.333L109.25 320.946H113.726V322.397H106.926V321.095Z" fill="white"/>
<path d="M115.949 317.721V317.695C115.949 315.008 117.588 312.829 120.062 312.829C122.522 312.829 124.148 314.98 124.148 317.667V317.694C124.148 320.381 122.508 322.559 120.035 322.559C117.563 322.559 115.949 320.409 115.949 317.721ZM122.441 317.721V317.695C122.441 315.84 121.486 314.321 120.035 314.321C118.584 314.321 117.656 315.799 117.656 317.667V317.694C117.656 319.548 118.597 321.067 120.062 321.067C121.527 321.067 122.441 319.562 122.441 317.721Z" fill="white"/>
<path d="M126.358 317.721V317.695C126.358 315.008 127.998 312.829 130.471 312.829C132.931 312.829 134.557 314.98 134.557 317.667V317.694C134.557 320.381 132.918 322.559 130.444 322.559C127.972 322.559 126.358 320.409 126.358 317.721ZM132.85 317.721V317.695C132.85 315.84 131.896 314.321 130.444 314.321C128.993 314.321 128.065 315.799 128.065 317.667V317.694C128.065 319.548 129.005 321.067 130.47 321.067C131.937 321.067 132.85 319.562 132.85 317.721Z" fill="white"/>
<path d="M136.767 317.721V317.695C136.767 315.008 138.407 312.829 140.88 312.829C143.34 312.829 144.967 314.98 144.967 317.667V317.694C144.967 320.381 143.327 322.559 140.854 322.559C138.381 322.559 136.767 320.409 136.767 317.721ZM143.26 317.721V317.695C143.26 315.84 142.305 314.321 140.854 314.321C139.402 314.321 138.474 315.799 138.474 317.667V317.694C138.474 319.548 139.415 321.067 140.879 321.067C142.346 321.067 143.26 319.562 143.26 317.721Z" fill="white"/>
<path d="M106.81 272.738L107.967 271.663C108.639 272.456 109.391 272.899 110.44 272.899C111.368 272.899 112.066 272.335 112.066 271.475V271.448C112.066 270.52 111.22 269.997 109.902 269.997H109.136L108.867 268.962L111.407 266.261H107.335V264.823H113.558V266.06L110.937 268.747C112.361 268.922 113.706 269.648 113.706 271.382V271.409C113.706 273.142 112.375 274.393 110.413 274.393C108.773 274.39 107.604 273.705 106.81 272.738Z" fill="white"/>
<path d="M115.982 269.552V269.525C115.982 266.838 117.622 264.661 120.095 264.661C122.555 264.661 124.182 266.811 124.182 269.498V269.525C124.182 272.213 122.542 274.39 120.068 274.39C117.596 274.39 115.982 272.24 115.982 269.552ZM122.475 269.552V269.525C122.475 267.67 121.52 266.152 120.068 266.152C118.617 266.152 117.689 267.63 117.689 269.498V269.525C117.689 271.379 118.629 272.898 120.094 272.898C121.561 272.898 122.475 271.393 122.475 269.552Z" fill="white"/>
<path d="M126.392 269.552V269.525C126.392 266.838 128.031 264.661 130.505 264.661C132.965 264.661 134.591 266.811 134.591 269.498V269.525C134.591 272.213 132.951 274.39 130.478 274.39C128.004 274.39 126.392 272.24 126.392 269.552ZM132.884 269.552V269.525C132.884 267.67 131.929 266.152 130.478 266.152C129.026 266.152 128.099 267.63 128.099 269.498V269.525C128.099 271.379 129.04 272.898 130.505 272.898C131.97 272.898 132.884 271.393 132.884 269.552Z" fill="white"/>
<path d="M136.801 269.552V269.525C136.801 266.838 138.441 264.661 140.914 264.661C143.374 264.661 145 266.811 145 269.498V269.525C145 272.213 143.361 274.39 140.887 274.39C138.414 274.39 136.801 272.24 136.801 269.552ZM143.293 269.552V269.525C143.293 267.67 142.339 266.152 140.887 266.152C139.436 266.152 138.508 267.63 138.508 269.498V269.525C138.508 271.379 139.449 272.898 140.914 272.898C142.379 272.898 143.293 271.393 143.293 269.552Z" fill="white"/>
<path d="M111.34 223.95H106.595L106.286 222.767L111.515 216.585H112.926V222.592H114.27V223.949H112.926V226.059H111.34V223.95ZM111.34 222.592V218.87L108.248 222.592H111.34Z" fill="white"/>
<path d="M116.413 221.383V221.356C116.413 218.669 118.052 216.492 120.526 216.492C122.986 216.492 124.612 218.642 124.612 221.329V221.356C124.612 224.044 122.972 226.222 120.499 226.222C118.027 226.222 116.413 224.071 116.413 221.383ZM122.905 221.383V221.356C122.905 219.502 121.95 217.983 120.499 217.983C119.047 217.983 118.12 219.461 118.12 221.329V221.356C118.12 223.211 119.06 224.729 120.525 224.729C121.992 224.729 122.905 223.224 122.905 221.383Z" fill="white"/>
<path d="M126.822 221.383V221.356C126.822 218.669 128.462 216.492 130.935 216.492C133.395 216.492 135.021 218.642 135.021 221.329V221.356C135.021 224.044 133.382 226.222 130.908 226.222C128.436 226.222 126.822 224.071 126.822 221.383ZM133.314 221.383V221.356C133.314 219.502 132.36 217.983 130.908 217.983C129.457 217.983 128.529 219.461 128.529 221.329V221.356C128.529 223.211 129.469 224.729 130.934 224.729C132.401 224.729 133.314 223.224 133.314 221.383Z" fill="white"/>
<path d="M137.231 221.383V221.356C137.231 218.669 138.871 216.492 141.344 216.492C143.804 216.492 145.431 218.642 145.431 221.329V221.356C145.431 224.044 143.791 226.222 141.318 226.222C138.845 226.222 137.231 224.071 137.231 221.383ZM143.724 221.383V221.356C143.724 219.502 142.769 217.983 141.318 217.983C139.866 217.983 138.938 219.461 138.938 221.329V221.356C138.938 223.211 139.878 224.729 141.343 224.729C142.81 224.729 143.724 223.224 143.724 221.383Z" fill="white"/>
<path d="M106.83 176.614L107.852 175.417C108.606 176.116 109.398 176.547 110.272 176.547C111.402 176.547 112.14 175.901 112.14 174.921V174.894C112.14 173.939 111.333 173.334 110.191 173.334C109.519 173.334 108.942 173.522 108.458 173.751L107.464 173.092L107.733 168.482H113.364V169.948H109.157L109.009 172.152C109.453 171.991 109.87 171.883 110.501 171.883C112.329 171.883 113.78 172.85 113.78 174.839V174.866C113.78 176.788 112.369 178.052 110.286 178.052C108.848 178.052 107.718 177.475 106.83 176.614Z" fill="white"/>
<path d="M116.016 173.213V173.186C116.016 170.499 117.656 168.322 120.129 168.322C122.589 168.322 124.215 170.472 124.215 173.159V173.186C124.215 175.874 122.576 178.052 120.102 178.052C117.63 178.052 116.016 175.901 116.016 173.213ZM122.508 173.213V173.186C122.508 171.332 121.553 169.813 120.102 169.813C118.651 169.813 117.723 171.291 117.723 173.159V173.186C117.723 175.041 118.664 176.559 120.129 176.559C121.594 176.559 122.508 175.054 122.508 173.213Z" fill="white"/>
<path d="M126.425 173.213V173.186C126.425 170.499 128.065 168.322 130.538 168.322C132.998 168.322 134.625 170.472 134.625 173.159V173.186C134.625 175.874 132.985 178.052 130.511 178.052C128.039 178.052 126.425 175.901 126.425 173.213ZM132.918 173.213V173.186C132.918 171.332 131.963 169.813 130.511 169.813C129.06 169.813 128.132 171.291 128.132 173.159V173.186C128.132 175.041 129.074 176.559 130.538 176.559C132.003 176.559 132.918 175.054 132.918 173.213Z" fill="white"/>
<path d="M136.835 173.213V173.186C136.835 170.499 138.474 168.322 140.948 168.322C143.408 168.322 145.034 170.472 145.034 173.159V173.186C145.034 175.874 143.394 178.052 140.921 178.052C138.448 178.052 136.835 175.901 136.835 173.213ZM143.327 173.213V173.186C143.327 171.332 142.372 169.813 140.921 169.813C139.469 169.813 138.541 171.291 138.541 173.159V173.186C138.541 175.041 139.483 176.559 140.948 176.559C142.412 176.559 143.327 175.054 143.327 173.213Z" fill="white"/>
<path d="M107.886 128.888C107.173 128.175 106.743 127.195 106.743 125.3V125.273C106.743 122.396 108.114 120.153 110.775 120.153C111.998 120.153 112.832 120.543 113.651 121.201L112.764 122.478C112.105 121.967 111.553 121.658 110.72 121.658C109.081 121.658 108.489 123.365 108.462 124.656C109.014 124.077 109.712 123.701 110.72 123.701C112.535 123.701 114 124.775 114 126.658V126.685C114 128.553 112.481 129.883 110.505 129.883C109.351 129.883 108.517 129.52 107.886 128.888ZM112.349 126.751V126.724C112.349 125.783 111.596 125.085 110.427 125.085C109.258 125.085 108.518 125.837 108.518 126.738V126.764C108.518 127.719 109.298 128.445 110.467 128.445C111.636 128.445 112.349 127.719 112.349 126.751Z" fill="white"/>
<path d="M116.238 125.044V125.017C116.238 122.33 117.877 120.153 120.351 120.153C122.811 120.153 124.437 122.303 124.437 124.991V125.017C124.437 127.706 122.797 129.883 120.324 129.883C117.851 129.883 116.238 127.733 116.238 125.044ZM122.73 125.044V125.017C122.73 123.163 121.775 121.645 120.324 121.645C118.873 121.645 117.945 123.123 117.945 124.991V125.017C117.945 126.872 118.885 128.39 120.35 128.39C121.816 128.39 122.73 126.885 122.73 125.044Z" fill="white"/>
<path d="M126.647 125.044V125.017C126.647 122.33 128.287 120.153 130.76 120.153C133.22 120.153 134.846 122.303 134.846 124.991V125.017C134.846 127.706 133.207 129.883 130.733 129.883C128.26 129.883 126.647 127.733 126.647 125.044ZM133.14 125.044V125.017C133.14 123.163 132.185 121.645 130.733 121.645C129.282 121.645 128.354 123.123 128.354 124.991V125.017C128.354 126.872 129.294 128.39 130.759 128.39C132.225 128.39 133.14 126.885 133.14 125.044Z" fill="white"/>
<path d="M137.057 125.044V125.017C137.057 122.33 138.696 120.153 141.17 120.153C143.63 120.153 145.256 122.303 145.256 124.991V125.017C145.256 127.706 143.616 129.883 141.143 129.883C138.669 129.883 137.057 127.733 137.057 125.044ZM143.549 125.044V125.017C143.549 123.163 142.594 121.645 141.143 121.645C139.691 121.645 138.763 123.123 138.763 124.991V125.017C138.763 126.872 139.704 128.39 141.168 128.39C142.636 128.39 143.549 126.885 143.549 125.044Z" fill="white"/>
<path d="M112.073 73.5957H107.341V72.1445H113.955V73.3951L109.721 81.5528H107.852L112.073 73.5957Z" fill="white"/>
<path d="M115.787 76.8744V76.8475C115.787 74.1604 117.427 71.9832 119.9 71.9832C122.36 71.9832 123.987 74.1335 123.987 76.8207V76.8475C123.987 79.5358 122.347 81.7131 119.873 81.7131C117.401 81.7131 115.787 79.5627 115.787 76.8744ZM122.28 76.8744V76.8475C122.28 74.993 121.325 73.4746 119.873 73.4746C118.422 73.4746 117.494 74.9527 117.494 76.8207V76.8475C117.494 78.7021 118.434 80.2205 119.899 80.2205C121.366 80.2216 122.28 78.7155 122.28 76.8744Z" fill="white"/>
<path d="M126.198 76.8744V76.8475C126.198 74.1604 127.837 71.9832 130.311 71.9832C132.771 71.9832 134.397 74.1335 134.397 76.8207V76.8475C134.397 79.5358 132.757 81.7131 130.284 81.7131C127.81 81.7131 126.198 79.5627 126.198 76.8744ZM132.69 76.8744V76.8475C132.69 74.993 131.735 73.4746 130.284 73.4746C128.833 73.4746 127.905 74.9527 127.905 76.8207V76.8475C127.905 78.7021 128.845 80.2205 130.31 80.2205C131.776 80.2216 132.69 78.7155 132.69 76.8744Z" fill="white"/>
<path d="M136.607 76.8744V76.8475C136.607 74.1604 138.247 71.9832 140.72 71.9832C143.18 71.9832 144.806 74.1335 144.806 76.8207V76.8475C144.806 79.5358 143.167 81.7131 140.693 81.7131C138.22 81.7131 136.607 79.5627 136.607 76.8744ZM143.1 76.8744V76.8475C143.1 74.993 142.145 73.4746 140.693 73.4746C139.242 73.4746 138.314 74.9527 138.314 76.8207V76.8475C138.314 78.7021 139.254 80.2205 140.719 80.2205C142.185 80.2216 143.1 78.7155 143.1 76.8744Z" fill="white"/>
<path d="M106.797 32.6388V32.6119C106.797 31.4834 107.428 30.7708 108.49 30.327C107.697 29.9102 107.118 29.2782 107.118 28.2304V28.2035C107.118 26.7658 108.503 25.6632 110.385 25.6632C112.268 25.6632 113.652 26.7513 113.652 28.2035V28.2304C113.652 29.2793 113.074 29.9102 112.28 30.327C113.316 30.7977 113.974 31.47 113.974 32.585V32.6119C113.974 34.2927 112.442 35.3404 110.385 35.3404C108.329 35.3404 106.797 34.2647 106.797 32.6388ZM112.362 32.5446V32.5177C112.362 31.6571 111.502 31.0935 110.386 31.0935C109.271 31.0935 108.424 31.6583 108.424 32.5177V32.5446C108.424 33.3111 109.149 33.9554 110.386 33.9554C111.624 33.9554 112.362 33.3234 112.362 32.5446ZM112.066 28.3918V28.3649C112.066 27.6388 111.394 27.0482 110.385 27.0482C109.377 27.0482 108.705 27.6388 108.705 28.3515V28.3783C108.705 29.1986 109.418 29.7768 110.385 29.7768C111.354 29.7757 112.066 29.1975 112.066 28.3918Z" fill="white"/>
<path d="M116.063 30.5276V30.5007C116.063 27.8136 117.703 25.6364 120.176 25.6364C122.636 25.6364 124.262 27.7867 124.262 30.4738V30.5007C124.262 33.189 122.623 35.3663 120.149 35.3663C117.677 35.3663 116.063 33.2159 116.063 30.5276ZM122.555 30.5276V30.5007C122.555 28.6462 121.601 27.1278 120.149 27.1278C118.698 27.1278 117.77 28.6059 117.77 30.4738V30.5007C117.77 32.3553 118.711 33.8737 120.176 33.8737C121.641 33.8737 122.555 32.3687 122.555 30.5276Z" fill="white"/>
<path d="M126.472 30.5276V30.5007C126.472 27.8136 128.112 25.6364 130.585 25.6364C133.045 25.6364 134.672 27.7867 134.672 30.4738V30.5007C134.672 33.189 133.032 35.3663 130.558 35.3663C128.086 35.3663 126.472 33.2159 126.472 30.5276ZM132.965 30.5276V30.5007C132.965 28.6462 132.01 27.1278 130.558 27.1278C129.107 27.1278 128.179 28.6059 128.179 30.4738V30.5007C128.179 32.3553 129.121 33.8737 130.585 33.8737C132.05 33.8737 132.965 32.3687 132.965 30.5276Z" fill="white"/>
<path d="M136.882 30.5276V30.5007C136.882 27.8136 138.521 25.6364 140.995 25.6364C143.455 25.6364 145.081 27.7867 145.081 30.4738V30.5007C145.081 33.189 143.441 35.3663 140.968 35.3663C138.496 35.3663 136.882 33.2159 136.882 30.5276ZM143.374 30.5276V30.5007C143.374 28.6462 142.419 27.1278 140.968 27.1278C139.516 27.1278 138.589 28.6059 138.589 30.4738V30.5007C138.589 32.3553 139.53 33.8737 140.995 33.8737C142.46 33.8737 143.374 32.3687 143.374 30.5276Z" fill="white"/>
<path d="M151.437 390.706L148.779 388.646L240.241 270.647L332.611 287.836L423.471 216.211L515.305 245.19L607.265 124.809L698.163 137.207L790.424 91.1628L791.926 94.1705L698.737 140.679L608.749 128.404L516.543 249.106L424.155 219.952L333.495 291.42L241.642 274.327L151.437 390.706Z" fill="#318DDE"/>
<path d="M790.172 311.933L698.393 243.643L607.724 303.532L515.858 201.125L425.82 291.325L331.714 155.107L240.631 46.1159L151.059 107.515L149.157 104.742L241.252 41.6157L334.436 153.131L426.292 286.093L515.989 196.236L517.175 197.559L608.291 299.128L698.507 239.539L792.179 309.237L790.172 311.933Z" fill="#1CD0BB"/>
<path d="M790.832 361.031L698.169 341.692L607.552 329.89L607.331 329.794L515.477 289.507L423.215 278.551L331.831 217.504L240.577 120.812L150.859 165.687L149.357 162.681L241.307 116.687L334.145 215.057L424.411 275.308L516.37 286.227L516.599 286.328L608.462 326.618L698.794 338.387L791.519 357.74L790.832 361.031Z" fill="#FFA400"/>
</svg>
